<?xml version="1.0" encoding="UTF-8" standalone="no"?>
<!DOCTYPE svg PUBLIC "-//W3C//DTD SVG 1.1//EN" "http://www.w3.org/Graphics/SVG/1.1/DTD/svg11.dtd">
<svg width="100%" height="100%" viewBox="0 0 90 90" version="1.1" xmlns="http://www.w3.org/2000/svg" xmlns:xlink="http://www.w3.org/1999/xlink" xml:space="preserve" xmlns:serif="http://www.serif.com/" style="fill-rule:evenodd;clip-rule:evenodd;stroke-linecap:round;stroke-linejoin:round;stroke-miterlimit:1.5;">
    <g id="Mole" transform="matrix(1,0,0,1,-950.014,-623.963)">
        <g id="Layer1" transform="matrix(1,0,0,1,950.014,623.963)">
            <rect x="-3.095" y="-1.111" width="95.159" height="93.848" style="fill:rgb(147,210,129);"/>
        </g>
        <path d="M976.464,714.158C976.464,714.158 975.971,645.284 1008.04,645.284C1040.11,645.284 1039.71,713.862 1039.71,713.862L976.464,714.158Z" style="fill:rgb(107,87,184);"/>
        <path d="M1003.39,686.628C1003.39,686.628 1012.98,679.608 1018.1,686.727C1023.62,694.423 1014.94,700.443 1014.94,700.443C1014.94,700.443 1011.47,711.994 998.656,714.158C989.292,715.74 980.698,704.093 980.698,704.093C980.698,704.093 946.119,685.49 955.94,678.119C967.719,669.28 1003.39,686.628 1003.39,686.628Z" style="fill:rgb(238,208,136);"/>
        <ellipse cx="955.94" cy="676.613" rx="5.624" ry="5.082" style="fill:rgb(171,63,61);"/>
        <g transform="matrix(1,0,0,1,0.315753,-1.13687e-13)">
            <path d="M987.236,664.129L994.795,673.075L1008.9,662.866C1008.9,662.866 1006.95,674.745 1003.95,677.548C1000.74,680.548 994.01,681.356 994.305,675.11C994.305,675.11 992.059,681.442 987.428,678.39C982.797,675.338 987.236,664.129 987.236,664.129Z" style="fill:rgb(55,68,128);"/>
        </g>
        <g id="Border">
            <path d="M980.639,704.282C980.639,704.282 998.848,707.597 1007.06,691.915C1007.06,691.915 1018.94,708.39 1000.85,713.702C988.372,717.365 980.639,704.282 980.639,704.282Z" style="fill:rgb(207,210,201);stroke:rgb(56,56,56);stroke-width:1.67px;"/>
            <g transform="matrix(1,0,0,1,0.315753,-1.13687e-13)">
                <path d="M985.641,704.55L988.831,712.427" style="fill:none;stroke:rgb(56,56,56);stroke-width:1.67px;"/>
            </g>
            <g transform="matrix(1,0,0,1,0.315753,-1.13687e-13)">
                <path d="M993.039,703.323L998.524,714.158" style="fill:none;stroke:rgb(56,56,56);stroke-width:1.67px;"/>
            </g>
            <path d="M970.239,685.74L978.527,688.996" style="fill:none;stroke:rgb(56,56,56);stroke-width:1.67px;"/>
            <path d="M971.423,681.695L979.798,681.695" style="fill:none;stroke:rgb(56,56,56);stroke-width:1.67px;"/>
            <g transform="matrix(1,0,0,1,0.315753,-1.13687e-13)">
                <path d="M1001,700.072L1007.77,710.034" style="fill:none;stroke:rgb(56,56,56);stroke-width:1.67px;"/>
            </g>
        </g>
    </g>
    <g transform="matrix(1,0,0,1,-8.4127,-6.66667)">
        <path d="M18.736,18.997L17.463,14.276L16.174,18.997C16.074,19.355 15.993,19.613 15.932,19.771C15.875,19.925 15.773,20.064 15.626,20.19C15.479,20.312 15.284,20.372 15.041,20.372C14.844,20.372 14.681,20.335 14.552,20.26C14.427,20.188 14.325,20.086 14.246,19.953C14.167,19.817 14.103,19.658 14.053,19.475C14.002,19.289 13.958,19.117 13.918,18.96L12.608,13.659C12.529,13.351 12.49,13.116 12.49,12.955C12.49,12.751 12.561,12.579 12.704,12.439C12.848,12.3 13.025,12.23 13.236,12.23C13.526,12.23 13.721,12.323 13.822,12.509C13.922,12.695 14.01,12.966 14.085,13.32L15.116,17.918L16.271,13.616C16.357,13.286 16.434,13.035 16.502,12.864C16.57,12.692 16.681,12.543 16.835,12.418C16.989,12.292 17.198,12.23 17.463,12.23C17.732,12.23 17.939,12.296 18.086,12.429C18.237,12.557 18.34,12.699 18.398,12.853C18.455,13.007 18.532,13.261 18.629,13.616L19.794,17.918L20.826,13.32C20.876,13.08 20.922,12.892 20.965,12.756C21.012,12.62 21.089,12.498 21.196,12.391C21.307,12.284 21.466,12.23 21.674,12.23C21.882,12.23 22.057,12.3 22.201,12.439C22.347,12.575 22.421,12.747 22.421,12.955C22.421,13.102 22.381,13.336 22.303,13.659L20.992,18.96C20.902,19.318 20.827,19.581 20.766,19.749C20.709,19.914 20.609,20.059 20.466,20.184C20.326,20.31 20.127,20.372 19.869,20.372C19.626,20.372 19.431,20.312 19.284,20.19C19.137,20.068 19.035,19.932 18.978,19.782C18.921,19.628 18.84,19.366 18.736,18.997Z" style="fill:none;fill-rule:nonzero;stroke:rgb(89,55,63);stroke-width:2px;stroke-linecap:butt;stroke-miterlimit:2;"/>
        <path d="M18.736,18.997L17.463,14.276L16.174,18.997C16.074,19.355 15.993,19.613 15.932,19.771C15.875,19.925 15.773,20.064 15.626,20.19C15.479,20.312 15.284,20.372 15.041,20.372C14.844,20.372 14.681,20.335 14.552,20.26C14.427,20.188 14.325,20.086 14.246,19.953C14.167,19.817 14.103,19.658 14.053,19.475C14.002,19.289 13.958,19.117 13.918,18.96L12.608,13.659C12.529,13.351 12.49,13.116 12.49,12.955C12.49,12.751 12.561,12.579 12.704,12.439C12.848,12.3 13.025,12.23 13.236,12.23C13.526,12.23 13.721,12.323 13.822,12.509C13.922,12.695 14.01,12.966 14.085,13.32L15.116,17.918L16.271,13.616C16.357,13.286 16.434,13.035 16.502,12.864C16.57,12.692 16.681,12.543 16.835,12.418C16.989,12.292 17.198,12.23 17.463,12.23C17.732,12.23 17.939,12.296 18.086,12.429C18.237,12.557 18.34,12.699 18.398,12.853C18.455,13.007 18.532,13.261 18.629,13.616L19.794,17.918L20.826,13.32C20.876,13.08 20.922,12.892 20.965,12.756C21.012,12.62 21.089,12.498 21.196,12.391C21.307,12.284 21.466,12.23 21.674,12.23C21.882,12.23 22.057,12.3 22.201,12.439C22.347,12.575 22.421,12.747 22.421,12.955C22.421,13.102 22.381,13.336 22.303,13.659L20.992,18.96C20.902,19.318 20.827,19.581 20.766,19.749C20.709,19.914 20.609,20.059 20.466,20.184C20.326,20.31 20.127,20.372 19.869,20.372C19.626,20.372 19.431,20.312 19.284,20.19C19.137,20.068 19.035,19.932 18.978,19.782C18.921,19.628 18.84,19.366 18.736,18.997Z" style="fill:white;fill-rule:nonzero;"/>
    </g>
    <g transform="matrix(1,0,0,1,-8.4127,-6.66667)">
        <path d="M24.811,13.121L24.811,15.297C24.997,15.082 25.178,14.912 25.353,14.786C25.532,14.661 25.729,14.568 25.944,14.507C26.159,14.443 26.39,14.41 26.637,14.41C27.009,14.41 27.339,14.489 27.625,14.647C27.915,14.804 28.143,15.034 28.307,15.334C28.411,15.51 28.481,15.707 28.517,15.925C28.553,16.14 28.571,16.389 28.571,16.672L28.571,19.481C28.571,19.774 28.503,19.996 28.367,20.147C28.234,20.297 28.057,20.372 27.835,20.372C27.351,20.372 27.11,20.075 27.11,19.481L27.11,17.005C27.11,16.536 27.04,16.176 26.9,15.925C26.761,15.671 26.496,15.544 26.105,15.544C25.844,15.544 25.608,15.619 25.396,15.769C25.189,15.916 25.033,16.118 24.929,16.376C24.85,16.595 24.811,16.983 24.811,17.542L24.811,19.481C24.811,19.771 24.745,19.993 24.612,20.147C24.483,20.297 24.302,20.372 24.07,20.372C23.586,20.372 23.345,20.075 23.345,19.481L23.345,13.121C23.345,12.824 23.407,12.602 23.533,12.455C23.661,12.305 23.84,12.23 24.07,12.23C24.302,12.23 24.483,12.305 24.612,12.455C24.745,12.606 24.811,12.828 24.811,13.121Z" style="fill:none;fill-rule:nonzero;stroke:rgb(89,55,63);stroke-width:2px;stroke-linecap:butt;stroke-miterlimit:2;"/>
        <path d="M24.811,13.121L24.811,15.297C24.997,15.082 25.178,14.912 25.353,14.786C25.532,14.661 25.729,14.568 25.944,14.507C26.159,14.443 26.39,14.41 26.637,14.41C27.009,14.41 27.339,14.489 27.625,14.647C27.915,14.804 28.143,15.034 28.307,15.334C28.411,15.51 28.481,15.707 28.517,15.925C28.553,16.14 28.571,16.389 28.571,16.672L28.571,19.481C28.571,19.774 28.503,19.996 28.367,20.147C28.234,20.297 28.057,20.372 27.835,20.372C27.351,20.372 27.11,20.075 27.11,19.481L27.11,17.005C27.11,16.536 27.04,16.176 26.9,15.925C26.761,15.671 26.496,15.544 26.105,15.544C25.844,15.544 25.608,15.619 25.396,15.769C25.189,15.916 25.033,16.118 24.929,16.376C24.85,16.595 24.811,16.983 24.811,17.542L24.811,19.481C24.811,19.771 24.745,19.993 24.612,20.147C24.483,20.297 24.302,20.372 24.07,20.372C23.586,20.372 23.345,20.075 23.345,19.481L23.345,13.121C23.345,12.824 23.407,12.602 23.533,12.455C23.661,12.305 23.84,12.23 24.07,12.23C24.302,12.23 24.483,12.305 24.612,12.455C24.745,12.606 24.811,12.828 24.811,13.121Z" style="fill:white;fill-rule:nonzero;"/>
    </g>
    <g transform="matrix(1,0,0,1,-8.4127,-6.66667)">
        <path d="M33.727,19.545C33.372,19.821 33.029,20.029 32.696,20.168C32.366,20.304 31.996,20.372 31.584,20.372C31.208,20.372 30.877,20.299 30.59,20.152C30.307,20.002 30.089,19.799 29.935,19.545C29.781,19.291 29.704,19.015 29.704,18.718C29.704,18.317 29.831,17.975 30.085,17.692C30.34,17.409 30.689,17.22 31.133,17.123C31.226,17.101 31.457,17.053 31.826,16.978C32.194,16.903 32.509,16.835 32.771,16.774C33.036,16.709 33.322,16.632 33.63,16.543C33.612,16.156 33.534,15.873 33.394,15.694C33.258,15.512 32.973,15.42 32.54,15.42C32.167,15.42 31.886,15.472 31.697,15.576C31.51,15.68 31.349,15.836 31.213,16.043C31.081,16.251 30.986,16.389 30.929,16.457C30.875,16.521 30.757,16.554 30.574,16.554C30.409,16.554 30.266,16.502 30.144,16.398C30.026,16.29 29.967,16.154 29.967,15.99C29.967,15.732 30.058,15.481 30.241,15.238C30.424,14.994 30.708,14.794 31.095,14.636C31.482,14.478 31.963,14.4 32.54,14.4C33.184,14.4 33.691,14.477 34.06,14.631C34.429,14.781 34.688,15.021 34.839,15.35C34.993,15.68 35.07,16.117 35.07,16.661C35.07,17.005 35.068,17.297 35.064,17.536C35.064,17.776 35.062,18.043 35.059,18.337C35.059,18.612 35.104,18.901 35.193,19.201C35.286,19.499 35.333,19.69 35.333,19.776C35.333,19.927 35.261,20.064 35.118,20.19C34.978,20.312 34.819,20.372 34.64,20.372C34.49,20.372 34.341,20.303 34.194,20.163C34.047,20.02 33.892,19.814 33.727,19.545ZM33.63,17.424C33.415,17.502 33.102,17.587 32.69,17.676C32.282,17.762 31.999,17.826 31.842,17.869C31.684,17.909 31.534,17.989 31.39,18.111C31.247,18.229 31.176,18.396 31.176,18.611C31.176,18.833 31.26,19.022 31.428,19.18C31.596,19.334 31.817,19.411 32.089,19.411C32.379,19.411 32.646,19.348 32.889,19.223C33.136,19.094 33.317,18.929 33.431,18.729C33.564,18.507 33.63,18.142 33.63,17.633L33.63,17.424Z" style="fill:none;fill-rule:nonzero;stroke:rgb(89,55,63);stroke-width:2px;stroke-linecap:butt;stroke-miterlimit:2;"/>
        <path d="M33.727,19.545C33.372,19.821 33.029,20.029 32.696,20.168C32.366,20.304 31.996,20.372 31.584,20.372C31.208,20.372 30.877,20.299 30.59,20.152C30.307,20.002 30.089,19.799 29.935,19.545C29.781,19.291 29.704,19.015 29.704,18.718C29.704,18.317 29.831,17.975 30.085,17.692C30.34,17.409 30.689,17.22 31.133,17.123C31.226,17.101 31.457,17.053 31.826,16.978C32.194,16.903 32.509,16.835 32.771,16.774C33.036,16.709 33.322,16.632 33.63,16.543C33.612,16.156 33.534,15.873 33.394,15.694C33.258,15.512 32.973,15.42 32.54,15.42C32.167,15.42 31.886,15.472 31.697,15.576C31.51,15.68 31.349,15.836 31.213,16.043C31.081,16.251 30.986,16.389 30.929,16.457C30.875,16.521 30.757,16.554 30.574,16.554C30.409,16.554 30.266,16.502 30.144,16.398C30.026,16.29 29.967,16.154 29.967,15.99C29.967,15.732 30.058,15.481 30.241,15.238C30.424,14.994 30.708,14.794 31.095,14.636C31.482,14.478 31.963,14.4 32.54,14.4C33.184,14.4 33.691,14.477 34.06,14.631C34.429,14.781 34.688,15.021 34.839,15.35C34.993,15.68 35.07,16.117 35.07,16.661C35.07,17.005 35.068,17.297 35.064,17.536C35.064,17.776 35.062,18.043 35.059,18.337C35.059,18.612 35.104,18.901 35.193,19.201C35.286,19.499 35.333,19.69 35.333,19.776C35.333,19.927 35.261,20.064 35.118,20.19C34.978,20.312 34.819,20.372 34.64,20.372C34.49,20.372 34.341,20.303 34.194,20.163C34.047,20.02 33.892,19.814 33.727,19.545ZM33.63,17.424C33.415,17.502 33.102,17.587 32.69,17.676C32.282,17.762 31.999,17.826 31.842,17.869C31.684,17.909 31.534,17.989 31.39,18.111C31.247,18.229 31.176,18.396 31.176,18.611C31.176,18.833 31.26,19.022 31.428,19.18C31.596,19.334 31.817,19.411 32.089,19.411C32.379,19.411 32.646,19.348 32.889,19.223C33.136,19.094 33.317,18.929 33.431,18.729C33.564,18.507 33.63,18.142 33.63,17.633L33.63,17.424Z" style="fill:white;fill-rule:nonzero;"/>
    </g>
    <g transform="matrix(1,0,0,1,-8.4127,-6.66667)">
        <path d="M41.816,18.557C41.816,18.74 41.76,18.935 41.649,19.142C41.542,19.35 41.375,19.549 41.15,19.739C40.928,19.925 40.647,20.075 40.306,20.19C39.966,20.304 39.583,20.362 39.157,20.362C38.251,20.362 37.544,20.098 37.035,19.572C36.527,19.042 36.273,18.333 36.273,17.445C36.273,16.844 36.389,16.312 36.622,15.85C36.855,15.388 37.191,15.032 37.632,14.781C38.072,14.527 38.598,14.4 39.211,14.4C39.59,14.4 39.938,14.455 40.253,14.566C40.571,14.677 40.84,14.82 41.058,14.996C41.28,15.171 41.449,15.359 41.563,15.56C41.681,15.757 41.741,15.941 41.741,16.113C41.741,16.289 41.674,16.437 41.542,16.559C41.413,16.681 41.255,16.742 41.069,16.742C40.947,16.742 40.845,16.711 40.763,16.65C40.684,16.586 40.595,16.484 40.494,16.344C40.315,16.072 40.127,15.868 39.93,15.732C39.737,15.596 39.49,15.528 39.189,15.528C38.756,15.528 38.407,15.698 38.142,16.038C37.877,16.374 37.744,16.836 37.744,17.424C37.744,17.699 37.778,17.954 37.847,18.186C37.915,18.416 38.013,18.612 38.142,18.777C38.271,18.938 38.427,19.062 38.609,19.148C38.792,19.23 38.992,19.271 39.211,19.271C39.504,19.271 39.755,19.203 39.963,19.067C40.174,18.931 40.36,18.723 40.521,18.444C40.611,18.279 40.708,18.151 40.811,18.057C40.915,17.964 41.042,17.918 41.193,17.918C41.372,17.918 41.52,17.986 41.639,18.122C41.757,18.258 41.816,18.403 41.816,18.557Z" style="fill:none;fill-rule:nonzero;stroke:rgb(89,55,63);stroke-width:2px;stroke-linecap:butt;stroke-miterlimit:2;"/>
        <path d="M41.816,18.557C41.816,18.74 41.76,18.935 41.649,19.142C41.542,19.35 41.375,19.549 41.15,19.739C40.928,19.925 40.647,20.075 40.306,20.19C39.966,20.304 39.583,20.362 39.157,20.362C38.251,20.362 37.544,20.098 37.035,19.572C36.527,19.042 36.273,18.333 36.273,17.445C36.273,16.844 36.389,16.312 36.622,15.85C36.855,15.388 37.191,15.032 37.632,14.781C38.072,14.527 38.598,14.4 39.211,14.4C39.59,14.4 39.938,14.455 40.253,14.566C40.571,14.677 40.84,14.82 41.058,14.996C41.28,15.171 41.449,15.359 41.563,15.56C41.681,15.757 41.741,15.941 41.741,16.113C41.741,16.289 41.674,16.437 41.542,16.559C41.413,16.681 41.255,16.742 41.069,16.742C40.947,16.742 40.845,16.711 40.763,16.65C40.684,16.586 40.595,16.484 40.494,16.344C40.315,16.072 40.127,15.868 39.93,15.732C39.737,15.596 39.49,15.528 39.189,15.528C38.756,15.528 38.407,15.698 38.142,16.038C37.877,16.374 37.744,16.836 37.744,17.424C37.744,17.699 37.778,17.954 37.847,18.186C37.915,18.416 38.013,18.612 38.142,18.777C38.271,18.938 38.427,19.062 38.609,19.148C38.792,19.23 38.992,19.271 39.211,19.271C39.504,19.271 39.755,19.203 39.963,19.067C40.174,18.931 40.36,18.723 40.521,18.444C40.611,18.279 40.708,18.151 40.811,18.057C40.915,17.964 41.042,17.918 41.193,17.918C41.372,17.918 41.52,17.986 41.639,18.122C41.757,18.258 41.816,18.403 41.816,18.557Z" style="fill:white;fill-rule:nonzero;"/>
    </g>
    <g transform="matrix(1,0,0,1,-8.4127,-6.66667)">
        <path d="M46.327,19.701L45.033,17.574L44.238,18.326L44.238,19.492C44.238,19.774 44.163,19.993 44.013,20.147C43.866,20.297 43.696,20.372 43.502,20.372C43.277,20.372 43.099,20.297 42.971,20.147C42.842,19.996 42.777,19.774 42.777,19.481L42.777,13.229C42.777,12.903 42.84,12.656 42.965,12.488C43.09,12.316 43.27,12.23 43.502,12.23C43.728,12.23 43.907,12.307 44.039,12.461C44.172,12.615 44.238,12.842 44.238,13.143L44.238,16.699L45.887,14.969C46.091,14.754 46.247,14.607 46.354,14.529C46.462,14.45 46.592,14.41 46.746,14.41C46.929,14.41 47.081,14.47 47.203,14.588C47.325,14.702 47.386,14.847 47.386,15.023C47.386,15.238 47.187,15.524 46.789,15.882L46.011,16.596L47.514,18.96C47.625,19.135 47.704,19.27 47.751,19.363C47.801,19.452 47.826,19.538 47.826,19.62C47.826,19.853 47.762,20.038 47.633,20.174C47.507,20.306 47.341,20.372 47.133,20.372C46.954,20.372 46.816,20.324 46.72,20.227C46.623,20.131 46.492,19.955 46.327,19.701Z" style="fill:none;fill-rule:nonzero;stroke:rgb(89,55,63);stroke-width:2px;stroke-linecap:butt;stroke-miterlimit:2;"/>
        <path d="M46.327,19.701L45.033,17.574L44.238,18.326L44.238,19.492C44.238,19.774 44.163,19.993 44.013,20.147C43.866,20.297 43.696,20.372 43.502,20.372C43.277,20.372 43.099,20.297 42.971,20.147C42.842,19.996 42.777,19.774 42.777,19.481L42.777,13.229C42.777,12.903 42.84,12.656 42.965,12.488C43.09,12.316 43.27,12.23 43.502,12.23C43.728,12.23 43.907,12.307 44.039,12.461C44.172,12.615 44.238,12.842 44.238,13.143L44.238,16.699L45.887,14.969C46.091,14.754 46.247,14.607 46.354,14.529C46.462,14.45 46.592,14.41 46.746,14.41C46.929,14.41 47.081,14.47 47.203,14.588C47.325,14.702 47.386,14.847 47.386,15.023C47.386,15.238 47.187,15.524 46.789,15.882L46.011,16.596L47.514,18.96C47.625,19.135 47.704,19.27 47.751,19.363C47.801,19.452 47.826,19.538 47.826,19.62C47.826,19.853 47.762,20.038 47.633,20.174C47.507,20.306 47.341,20.372 47.133,20.372C46.954,20.372 46.816,20.324 46.72,20.227C46.623,20.131 46.492,19.955 46.327,19.701Z" style="fill:white;fill-rule:nonzero;"/>
    </g>
    <g transform="matrix(1,0,0,1,-8.4127,-6.66667)">
        <path d="M56.871,19.346L56.495,18.358L53.294,18.358L52.918,19.368C52.771,19.762 52.646,20.029 52.542,20.168C52.438,20.304 52.268,20.372 52.032,20.372C51.831,20.372 51.654,20.299 51.5,20.152C51.346,20.005 51.269,19.839 51.269,19.653C51.269,19.545 51.287,19.434 51.323,19.32C51.358,19.205 51.417,19.046 51.5,18.842L53.514,13.728C53.571,13.582 53.639,13.406 53.718,13.202C53.8,12.994 53.886,12.822 53.976,12.686C54.069,12.55 54.189,12.441 54.336,12.359C54.486,12.273 54.671,12.23 54.889,12.23C55.111,12.23 55.295,12.273 55.442,12.359C55.593,12.441 55.713,12.548 55.802,12.681C55.895,12.813 55.972,12.957 56.033,13.111C56.097,13.261 56.178,13.463 56.275,13.718L58.332,18.799C58.493,19.185 58.574,19.466 58.574,19.642C58.574,19.825 58.497,19.993 58.343,20.147C58.192,20.297 58.01,20.372 57.795,20.372C57.669,20.372 57.562,20.349 57.472,20.303C57.383,20.26 57.308,20.2 57.247,20.125C57.186,20.047 57.12,19.928 57.048,19.771C56.98,19.61 56.921,19.468 56.871,19.346ZM53.713,17.16L56.065,17.16L54.878,13.911L53.713,17.16Z" style="fill:none;fill-rule:nonzero;stroke:rgb(89,55,63);stroke-width:2px;stroke-linecap:butt;stroke-miterlimit:2;"/>
        <path d="M56.871,19.346L56.495,18.358L53.294,18.358L52.918,19.368C52.771,19.762 52.646,20.029 52.542,20.168C52.438,20.304 52.268,20.372 52.032,20.372C51.831,20.372 51.654,20.299 51.5,20.152C51.346,20.005 51.269,19.839 51.269,19.653C51.269,19.545 51.287,19.434 51.323,19.32C51.358,19.205 51.417,19.046 51.5,18.842L53.514,13.728C53.571,13.582 53.639,13.406 53.718,13.202C53.8,12.994 53.886,12.822 53.976,12.686C54.069,12.55 54.189,12.441 54.336,12.359C54.486,12.273 54.671,12.23 54.889,12.23C55.111,12.23 55.295,12.273 55.442,12.359C55.593,12.441 55.713,12.548 55.802,12.681C55.895,12.813 55.972,12.957 56.033,13.111C56.097,13.261 56.178,13.463 56.275,13.718L58.332,18.799C58.493,19.185 58.574,19.466 58.574,19.642C58.574,19.825 58.497,19.993 58.343,20.147C58.192,20.297 58.01,20.372 57.795,20.372C57.669,20.372 57.562,20.349 57.472,20.303C57.383,20.26 57.308,20.2 57.247,20.125C57.186,20.047 57.12,19.928 57.048,19.771C56.98,19.61 56.921,19.468 56.871,19.346ZM53.713,17.16L56.065,17.16L54.878,13.911L53.713,17.16Z" style="fill:white;fill-rule:nonzero;"/>
    </g>
    <g transform="matrix(1,0,0,1,-8.4127,-6.66667)">
        <path d="M65.153,19.051L63.891,14.034L63.891,19.47C63.891,19.771 63.823,19.996 63.687,20.147C63.554,20.297 63.377,20.372 63.155,20.372C62.94,20.372 62.765,20.299 62.629,20.152C62.493,20.002 62.425,19.774 62.425,19.47L62.425,13.24C62.425,12.896 62.514,12.665 62.693,12.547C62.872,12.425 63.114,12.364 63.418,12.364L63.912,12.364C64.21,12.364 64.424,12.391 64.557,12.445C64.693,12.498 64.793,12.595 64.858,12.735C64.922,12.874 64.996,13.102 65.078,13.417L66.222,17.73L67.366,13.417C67.448,13.102 67.522,12.874 67.586,12.735C67.651,12.595 67.749,12.498 67.882,12.445C68.018,12.391 68.234,12.364 68.532,12.364L69.026,12.364C69.33,12.364 69.572,12.425 69.751,12.547C69.93,12.665 70.019,12.896 70.019,13.24L70.019,19.47C70.019,19.771 69.951,19.996 69.815,20.147C69.683,20.297 69.504,20.372 69.278,20.372C69.067,20.372 68.893,20.297 68.757,20.147C68.621,19.996 68.553,19.771 68.553,19.47L68.553,14.034L67.291,19.051C67.208,19.377 67.14,19.617 67.087,19.771C67.037,19.921 66.942,20.059 66.802,20.184C66.662,20.31 66.469,20.372 66.222,20.372C66.036,20.372 65.878,20.331 65.749,20.249C65.62,20.17 65.52,20.068 65.449,19.943C65.377,19.817 65.32,19.68 65.277,19.529C65.237,19.375 65.196,19.216 65.153,19.051Z" style="fill:none;fill-rule:nonzero;stroke:rgb(89,55,63);stroke-width:2px;stroke-linecap:butt;stroke-miterlimit:2;"/>
        <path d="M65.153,19.051L63.891,14.034L63.891,19.47C63.891,19.771 63.823,19.996 63.687,20.147C63.554,20.297 63.377,20.372 63.155,20.372C62.94,20.372 62.765,20.299 62.629,20.152C62.493,20.002 62.425,19.774 62.425,19.47L62.425,13.24C62.425,12.896 62.514,12.665 62.693,12.547C62.872,12.425 63.114,12.364 63.418,12.364L63.912,12.364C64.21,12.364 64.424,12.391 64.557,12.445C64.693,12.498 64.793,12.595 64.858,12.735C64.922,12.874 64.996,13.102 65.078,13.417L66.222,17.73L67.366,13.417C67.448,13.102 67.522,12.874 67.586,12.735C67.651,12.595 67.749,12.498 67.882,12.445C68.018,12.391 68.234,12.364 68.532,12.364L69.026,12.364C69.33,12.364 69.572,12.425 69.751,12.547C69.93,12.665 70.019,12.896 70.019,13.24L70.019,19.47C70.019,19.771 69.951,19.996 69.815,20.147C69.683,20.297 69.504,20.372 69.278,20.372C69.067,20.372 68.893,20.297 68.757,20.147C68.621,19.996 68.553,19.771 68.553,19.47L68.553,14.034L67.291,19.051C67.208,19.377 67.14,19.617 67.087,19.771C67.037,19.921 66.942,20.059 66.802,20.184C66.662,20.31 66.469,20.372 66.222,20.372C66.036,20.372 65.878,20.331 65.749,20.249C65.62,20.17 65.52,20.068 65.449,19.943C65.377,19.817 65.32,19.68 65.277,19.529C65.237,19.375 65.196,19.216 65.153,19.051Z" style="fill:white;fill-rule:nonzero;"/>
    </g>
    <g transform="matrix(1,0,0,1,-8.4127,-6.66667)">
        <path d="M75.262,19.545C74.907,19.821 74.563,20.029 74.23,20.168C73.901,20.304 73.53,20.372 73.118,20.372C72.743,20.372 72.411,20.299 72.125,20.152C71.842,20.002 71.624,19.799 71.47,19.545C71.316,19.291 71.239,19.015 71.239,18.718C71.239,18.317 71.366,17.975 71.62,17.692C71.874,17.409 72.223,17.22 72.667,17.123C72.76,17.101 72.991,17.053 73.36,16.978C73.729,16.903 74.044,16.835 74.305,16.774C74.57,16.709 74.857,16.632 75.165,16.543C75.147,16.156 75.068,15.873 74.929,15.694C74.792,15.512 74.508,15.42 74.075,15.42C73.702,15.42 73.421,15.472 73.231,15.576C73.045,15.68 72.884,15.836 72.748,16.043C72.615,16.251 72.521,16.389 72.463,16.457C72.409,16.521 72.291,16.554 72.109,16.554C71.944,16.554 71.801,16.502 71.679,16.398C71.561,16.29 71.502,16.154 71.502,15.99C71.502,15.732 71.593,15.481 71.776,15.238C71.958,14.994 72.243,14.794 72.63,14.636C73.016,14.478 73.498,14.4 74.075,14.4C74.719,14.4 75.226,14.477 75.595,14.631C75.963,14.781 76.223,15.021 76.373,15.35C76.527,15.68 76.604,16.117 76.604,16.661C76.604,17.005 76.603,17.297 76.599,17.536C76.599,17.776 76.597,18.043 76.594,18.337C76.594,18.612 76.638,18.901 76.728,19.201C76.821,19.499 76.868,19.69 76.868,19.776C76.868,19.927 76.796,20.064 76.653,20.19C76.513,20.312 76.354,20.372 76.175,20.372C76.024,20.372 75.876,20.303 75.729,20.163C75.582,20.02 75.426,19.814 75.262,19.545ZM75.165,17.424C74.95,17.502 74.637,17.587 74.225,17.676C73.817,17.762 73.534,17.826 73.376,17.869C73.219,17.909 73.068,17.989 72.925,18.111C72.782,18.229 72.71,18.396 72.71,18.611C72.71,18.833 72.794,19.022 72.963,19.18C73.131,19.334 73.351,19.411 73.623,19.411C73.913,19.411 74.18,19.348 74.424,19.223C74.671,19.094 74.852,18.929 74.966,18.729C75.099,18.507 75.165,18.142 75.165,17.633L75.165,17.424Z" style="fill:none;fill-rule:nonzero;stroke:rgb(89,55,63);stroke-width:2px;stroke-linecap:butt;stroke-miterlimit:2;"/>
        <path d="M75.262,19.545C74.907,19.821 74.563,20.029 74.23,20.168C73.901,20.304 73.53,20.372 73.118,20.372C72.743,20.372 72.411,20.299 72.125,20.152C71.842,20.002 71.624,19.799 71.47,19.545C71.316,19.291 71.239,19.015 71.239,18.718C71.239,18.317 71.366,17.975 71.62,17.692C71.874,17.409 72.223,17.22 72.667,17.123C72.76,17.101 72.991,17.053 73.36,16.978C73.729,16.903 74.044,16.835 74.305,16.774C74.57,16.709 74.857,16.632 75.165,16.543C75.147,16.156 75.068,15.873 74.929,15.694C74.792,15.512 74.508,15.42 74.075,15.42C73.702,15.42 73.421,15.472 73.231,15.576C73.045,15.68 72.884,15.836 72.748,16.043C72.615,16.251 72.521,16.389 72.463,16.457C72.409,16.521 72.291,16.554 72.109,16.554C71.944,16.554 71.801,16.502 71.679,16.398C71.561,16.29 71.502,16.154 71.502,15.99C71.502,15.732 71.593,15.481 71.776,15.238C71.958,14.994 72.243,14.794 72.63,14.636C73.016,14.478 73.498,14.4 74.075,14.4C74.719,14.4 75.226,14.477 75.595,14.631C75.963,14.781 76.223,15.021 76.373,15.35C76.527,15.68 76.604,16.117 76.604,16.661C76.604,17.005 76.603,17.297 76.599,17.536C76.599,17.776 76.597,18.043 76.594,18.337C76.594,18.612 76.638,18.901 76.728,19.201C76.821,19.499 76.868,19.69 76.868,19.776C76.868,19.927 76.796,20.064 76.653,20.19C76.513,20.312 76.354,20.372 76.175,20.372C76.024,20.372 75.876,20.303 75.729,20.163C75.582,20.02 75.426,19.814 75.262,19.545ZM75.165,17.424C74.95,17.502 74.637,17.587 74.225,17.676C73.817,17.762 73.534,17.826 73.376,17.869C73.219,17.909 73.068,17.989 72.925,18.111C72.782,18.229 72.71,18.396 72.71,18.611C72.71,18.833 72.794,19.022 72.963,19.18C73.131,19.334 73.351,19.411 73.623,19.411C73.913,19.411 74.18,19.348 74.424,19.223C74.671,19.094 74.852,18.929 74.966,18.729C75.099,18.507 75.165,18.142 75.165,17.633L75.165,17.424Z" style="fill:white;fill-rule:nonzero;"/>
    </g>
    <g transform="matrix(1,0,0,1,-8.4127,-6.66667)">
        <path d="M77.899,14.539L78.06,14.539L78.06,13.659C78.06,13.422 78.065,13.238 78.076,13.105C78.09,12.969 78.126,12.853 78.183,12.756C78.241,12.656 78.323,12.575 78.43,12.514C78.538,12.45 78.658,12.418 78.79,12.418C78.977,12.418 79.145,12.488 79.295,12.627C79.396,12.72 79.458,12.835 79.483,12.971C79.512,13.103 79.526,13.293 79.526,13.54L79.526,14.539L80.063,14.539C80.271,14.539 80.429,14.589 80.536,14.69C80.647,14.786 80.702,14.912 80.702,15.066C80.702,15.263 80.624,15.401 80.466,15.479C80.312,15.558 80.09,15.597 79.8,15.597L79.526,15.597L79.526,18.294C79.526,18.523 79.533,18.7 79.548,18.825C79.566,18.947 79.609,19.048 79.677,19.126C79.748,19.201 79.863,19.239 80.02,19.239C80.106,19.239 80.223,19.225 80.369,19.196C80.516,19.164 80.631,19.148 80.713,19.148C80.831,19.148 80.937,19.196 81.03,19.293C81.127,19.386 81.175,19.502 81.175,19.642C81.175,19.878 81.046,20.059 80.788,20.184C80.531,20.31 80.16,20.372 79.677,20.372C79.218,20.372 78.871,20.295 78.635,20.141C78.398,19.987 78.243,19.774 78.167,19.502C78.096,19.23 78.06,18.867 78.06,18.412L78.06,15.597L77.867,15.597C77.655,15.597 77.494,15.547 77.383,15.447C77.272,15.347 77.217,15.22 77.217,15.066C77.217,14.912 77.274,14.786 77.389,14.69C77.507,14.589 77.677,14.539 77.899,14.539Z" style="fill:none;fill-rule:nonzero;stroke:rgb(89,55,63);stroke-width:2px;stroke-linecap:butt;stroke-miterlimit:2;"/>
        <path d="M77.899,14.539L78.06,14.539L78.06,13.659C78.06,13.422 78.065,13.238 78.076,13.105C78.09,12.969 78.126,12.853 78.183,12.756C78.241,12.656 78.323,12.575 78.43,12.514C78.538,12.45 78.658,12.418 78.79,12.418C78.977,12.418 79.145,12.488 79.295,12.627C79.396,12.72 79.458,12.835 79.483,12.971C79.512,13.103 79.526,13.293 79.526,13.54L79.526,14.539L80.063,14.539C80.271,14.539 80.429,14.589 80.536,14.69C80.647,14.786 80.702,14.912 80.702,15.066C80.702,15.263 80.624,15.401 80.466,15.479C80.312,15.558 80.09,15.597 79.8,15.597L79.526,15.597L79.526,18.294C79.526,18.523 79.533,18.7 79.548,18.825C79.566,18.947 79.609,19.048 79.677,19.126C79.748,19.201 79.863,19.239 80.02,19.239C80.106,19.239 80.223,19.225 80.369,19.196C80.516,19.164 80.631,19.148 80.713,19.148C80.831,19.148 80.937,19.196 81.03,19.293C81.127,19.386 81.175,19.502 81.175,19.642C81.175,19.878 81.046,20.059 80.788,20.184C80.531,20.31 80.16,20.372 79.677,20.372C79.218,20.372 78.871,20.295 78.635,20.141C78.398,19.987 78.243,19.774 78.167,19.502C78.096,19.23 78.06,18.867 78.06,18.412L78.06,15.597L77.867,15.597C77.655,15.597 77.494,15.547 77.383,15.447C77.272,15.347 77.217,15.22 77.217,15.066C77.217,14.912 77.274,14.786 77.389,14.69C77.507,14.589 77.677,14.539 77.899,14.539Z" style="fill:white;fill-rule:nonzero;"/>
    </g>
    <g transform="matrix(1,0,0,1,-8.4127,-6.66667)">
        <path d="M86.971,18.557C86.971,18.74 86.915,18.935 86.804,19.142C86.697,19.35 86.53,19.549 86.305,19.739C86.083,19.925 85.801,20.075 85.461,20.19C85.121,20.304 84.738,20.362 84.312,20.362C83.406,20.362 82.699,20.098 82.19,19.572C81.682,19.042 81.428,18.333 81.428,17.445C81.428,16.844 81.544,16.312 81.777,15.85C82.009,15.388 82.346,15.032 82.786,14.781C83.227,14.527 83.753,14.4 84.366,14.4C84.745,14.4 85.092,14.455 85.408,14.566C85.726,14.677 85.995,14.82 86.213,14.996C86.435,15.171 86.604,15.359 86.718,15.56C86.836,15.757 86.895,15.941 86.895,16.113C86.895,16.289 86.829,16.437 86.697,16.559C86.568,16.681 86.41,16.742 86.224,16.742C86.102,16.742 86,16.711 85.918,16.65C85.839,16.586 85.75,16.484 85.649,16.344C85.47,16.072 85.282,15.868 85.085,15.732C84.892,15.596 84.645,15.528 84.344,15.528C83.911,15.528 83.562,15.698 83.297,16.038C83.032,16.374 82.899,16.836 82.899,17.424C82.899,17.699 82.933,17.954 83.001,18.186C83.069,18.416 83.168,18.612 83.297,18.777C83.426,18.938 83.581,19.062 83.764,19.148C83.947,19.23 84.147,19.271 84.366,19.271C84.659,19.271 84.91,19.203 85.118,19.067C85.329,18.931 85.515,18.723 85.676,18.444C85.766,18.279 85.862,18.151 85.966,18.057C86.07,17.964 86.197,17.918 86.347,17.918C86.527,17.918 86.675,17.986 86.793,18.122C86.911,18.258 86.971,18.403 86.971,18.557Z" style="fill:none;fill-rule:nonzero;stroke:rgb(89,55,63);stroke-width:2px;stroke-linecap:butt;stroke-miterlimit:2;"/>
        <path d="M86.971,18.557C86.971,18.74 86.915,18.935 86.804,19.142C86.697,19.35 86.53,19.549 86.305,19.739C86.083,19.925 85.801,20.075 85.461,20.19C85.121,20.304 84.738,20.362 84.312,20.362C83.406,20.362 82.699,20.098 82.19,19.572C81.682,19.042 81.428,18.333 81.428,17.445C81.428,16.844 81.544,16.312 81.777,15.85C82.009,15.388 82.346,15.032 82.786,14.781C83.227,14.527 83.753,14.4 84.366,14.4C84.745,14.4 85.092,14.455 85.408,14.566C85.726,14.677 85.995,14.82 86.213,14.996C86.435,15.171 86.604,15.359 86.718,15.56C86.836,15.757 86.895,15.941 86.895,16.113C86.895,16.289 86.829,16.437 86.697,16.559C86.568,16.681 86.41,16.742 86.224,16.742C86.102,16.742 86,16.711 85.918,16.65C85.839,16.586 85.75,16.484 85.649,16.344C85.47,16.072 85.282,15.868 85.085,15.732C84.892,15.596 84.645,15.528 84.344,15.528C83.911,15.528 83.562,15.698 83.297,16.038C83.032,16.374 82.899,16.836 82.899,17.424C82.899,17.699 82.933,17.954 83.001,18.186C83.069,18.416 83.168,18.612 83.297,18.777C83.426,18.938 83.581,19.062 83.764,19.148C83.947,19.23 84.147,19.271 84.366,19.271C84.659,19.271 84.91,19.203 85.118,19.067C85.329,18.931 85.515,18.723 85.676,18.444C85.766,18.279 85.862,18.151 85.966,18.057C86.07,17.964 86.197,17.918 86.347,17.918C86.527,17.918 86.675,17.986 86.793,18.122C86.911,18.258 86.971,18.403 86.971,18.557Z" style="fill:white;fill-rule:nonzero;"/>
    </g>
    <g transform="matrix(1,0,0,1,-8.4127,-6.66667)">
        <path d="M89.409,13.121L89.409,15.297C89.595,15.082 89.776,14.912 89.951,14.786C90.131,14.661 90.327,14.568 90.542,14.507C90.757,14.443 90.988,14.41 91.235,14.41C91.608,14.41 91.937,14.489 92.223,14.647C92.514,14.804 92.741,15.034 92.906,15.334C93.009,15.51 93.079,15.707 93.115,15.925C93.151,16.14 93.169,16.389 93.169,16.672L93.169,19.481C93.169,19.774 93.101,19.996 92.965,20.147C92.832,20.297 92.655,20.372 92.433,20.372C91.95,20.372 91.708,20.075 91.708,19.481L91.708,17.005C91.708,16.536 91.638,16.176 91.498,15.925C91.359,15.671 91.094,15.544 90.703,15.544C90.442,15.544 90.206,15.619 89.994,15.769C89.787,15.916 89.631,16.118 89.527,16.376C89.448,16.595 89.409,16.983 89.409,17.542L89.409,19.481C89.409,19.771 89.343,19.993 89.21,20.147C89.081,20.297 88.901,20.372 88.668,20.372C88.184,20.372 87.943,20.075 87.943,19.481L87.943,13.121C87.943,12.824 88.005,12.602 88.131,12.455C88.26,12.305 88.439,12.23 88.668,12.23C88.901,12.23 89.081,12.305 89.21,12.455C89.343,12.606 89.409,12.828 89.409,13.121Z" style="fill:none;fill-rule:nonzero;stroke:rgb(89,55,63);stroke-width:2px;stroke-linecap:butt;stroke-miterlimit:2;"/>
        <path d="M89.409,13.121L89.409,15.297C89.595,15.082 89.776,14.912 89.951,14.786C90.131,14.661 90.327,14.568 90.542,14.507C90.757,14.443 90.988,14.41 91.235,14.41C91.608,14.41 91.937,14.489 92.223,14.647C92.514,14.804 92.741,15.034 92.906,15.334C93.009,15.51 93.079,15.707 93.115,15.925C93.151,16.14 93.169,16.389 93.169,16.672L93.169,19.481C93.169,19.774 93.101,19.996 92.965,20.147C92.832,20.297 92.655,20.372 92.433,20.372C91.95,20.372 91.708,20.075 91.708,19.481L91.708,17.005C91.708,16.536 91.638,16.176 91.498,15.925C91.359,15.671 91.094,15.544 90.703,15.544C90.442,15.544 90.206,15.619 89.994,15.769C89.787,15.916 89.631,16.118 89.527,16.376C89.448,16.595 89.409,16.983 89.409,17.542L89.409,19.481C89.409,19.771 89.343,19.993 89.21,20.147C89.081,20.297 88.901,20.372 88.668,20.372C88.184,20.372 87.943,20.075 87.943,19.481L87.943,13.121C87.943,12.824 88.005,12.602 88.131,12.455C88.26,12.305 88.439,12.23 88.668,12.23C88.901,12.23 89.081,12.305 89.21,12.455C89.343,12.606 89.409,12.828 89.409,13.121Z" style="fill:white;fill-rule:nonzero;"/>
    </g>
</svg>
