<?xml version="1.0" encoding="UTF-8" standalone="no"?>
<!DOCTYPE svg PUBLIC "-//W3C//DTD SVG 1.1//EN" "http://www.w3.org/Graphics/SVG/1.1/DTD/svg11.dtd">
<svg width="100%" height="100%" viewBox="0 0 512 748" version="1.1" xmlns="http://www.w3.org/2000/svg" xmlns:xlink="http://www.w3.org/1999/xlink" xml:space="preserve" xmlns:serif="http://www.serif.com/" style="fill-rule:evenodd;clip-rule:evenodd;stroke-linecap:round;stroke-linejoin:round;stroke-miterlimit:1.5;">
    <g transform="matrix(1.00981,0,0,0.988421,-16.6477,-109.076)">
        <path d="M519.786,154.588L519.786,822.881C519.786,845.663 501.681,864.159 479.382,864.159L60.618,864.159C38.319,864.159 20.214,845.663 20.214,822.881L20.214,154.588C20.214,131.806 38.319,113.31 60.618,113.31L479.382,113.31C501.681,113.31 519.786,131.806 519.786,154.588Z" style="fill:rgb(187,234,154);"/>
    </g>
    <g id="Flower" transform="matrix(1,0,0,1,-489.462,-261.338)">
        <path d="M560.898,515.204C560.898,515.204 579.085,511.111 576.433,496.789C576.433,496.789 560.291,499.745 560.898,515.204Z" style="fill:none;stroke:rgb(138,197,131);stroke-width:4.11px;"/>
        <path d="M557.866,484.512C557.866,484.512 562.716,493.531 560.898,515.204" style="fill:none;stroke:rgb(138,197,131);stroke-width:4.11px;"/>
        <path d="M560.898,515.203C560.898,515.203 543.62,515.507 544.074,501.108C544.074,501.108 560.064,499.896 560.898,515.203Z" style="fill:none;stroke:rgb(138,197,131);stroke-width:4.11px;"/>
        <path d="M557.336,483.982C557.336,483.982 555.142,492.769 547.257,491.181C538.175,489.352 545.666,482.845 545.666,482.845C545.666,482.845 536.242,482.804 537.254,477.313C538.272,471.787 551.501,474.433 551.501,474.433C551.501,474.433 554.795,463.283 562.262,467.158C568.969,470.64 560.14,477.237 560.14,477.237C560.14,477.237 573.154,476.323 570.825,481.026C566.96,488.832 557.336,483.982 557.336,483.982Z" style="fill:none;stroke:rgb(229,255,228);stroke-width:4.11px;"/>
    </g>
    <g id="Flower1" serif:id="Flower" transform="matrix(1,0,0,1,-139.429,140.484)">
        <path d="M560.898,515.204C560.898,515.204 579.085,511.111 576.433,496.789C576.433,496.789 560.291,499.745 560.898,515.204Z" style="fill:none;stroke:rgb(138,197,131);stroke-width:4.11px;"/>
        <path d="M557.866,484.512C557.866,484.512 562.716,493.531 560.898,515.204" style="fill:none;stroke:rgb(138,197,131);stroke-width:4.11px;"/>
        <path d="M560.898,515.203C560.898,515.203 543.62,515.507 544.074,501.108C544.074,501.108 560.064,499.896 560.898,515.203Z" style="fill:none;stroke:rgb(138,197,131);stroke-width:4.11px;"/>
        <path d="M557.336,483.982C557.336,483.982 555.142,492.769 547.257,491.181C538.175,489.352 545.666,482.845 545.666,482.845C545.666,482.845 536.242,482.804 537.254,477.313C538.272,471.787 551.501,474.433 551.501,474.433C551.501,474.433 554.795,463.283 562.262,467.158C568.969,470.64 560.14,477.237 560.14,477.237C560.14,477.237 573.154,476.323 570.825,481.026C566.96,488.832 557.336,483.982 557.336,483.982Z" style="fill:none;stroke:rgb(229,255,228);stroke-width:4.11px;"/>
    </g>
    <g id="Flower2" serif:id="Flower" transform="matrix(-1,0,0,1,964.028,-243.685)">
        <path d="M560.898,515.204C560.898,515.204 579.085,511.111 576.433,496.789C576.433,496.789 560.291,499.745 560.898,515.204Z" style="fill:none;stroke:rgb(138,197,131);stroke-width:4.11px;"/>
        <path d="M557.866,484.512C557.866,484.512 562.716,493.531 560.898,515.204" style="fill:none;stroke:rgb(138,197,131);stroke-width:4.11px;"/>
        <path d="M560.898,515.203C560.898,515.203 543.62,515.507 544.074,501.108C544.074,501.108 560.064,499.896 560.898,515.203Z" style="fill:none;stroke:rgb(138,197,131);stroke-width:4.11px;"/>
        <path d="M557.336,483.982C557.336,483.982 555.142,492.769 547.257,491.181C538.175,489.352 545.666,482.845 545.666,482.845C545.666,482.845 536.242,482.804 537.254,477.313C538.272,471.787 551.501,474.433 551.501,474.433C551.501,474.433 554.795,463.283 562.262,467.158C568.969,470.64 560.14,477.237 560.14,477.237C560.14,477.237 573.154,476.323 570.825,481.026C566.96,488.832 557.336,483.982 557.336,483.982Z" style="fill:none;stroke:rgb(229,255,228);stroke-width:4.11px;"/>
    </g>
    <g id="Flower3" serif:id="Flower" transform="matrix(1,0,0,1,-265.09,19.8005)">
        <path d="M560.898,515.204C560.898,515.204 579.085,511.111 576.433,496.789C576.433,496.789 560.291,499.745 560.898,515.204Z" style="fill:none;stroke:rgb(138,197,131);stroke-width:4.11px;"/>
        <path d="M557.866,484.512C557.866,484.512 562.716,493.531 560.898,515.204" style="fill:none;stroke:rgb(138,197,131);stroke-width:4.11px;"/>
        <path d="M560.898,515.203C560.898,515.203 543.62,515.507 544.074,501.108C544.074,501.108 560.064,499.896 560.898,515.203Z" style="fill:none;stroke:rgb(138,197,131);stroke-width:4.11px;"/>
        <path d="M557.336,483.982C557.336,483.982 555.142,492.769 547.257,491.181C538.175,489.352 545.666,482.845 545.666,482.845C545.666,482.845 536.242,482.804 537.254,477.313C538.272,471.787 551.501,474.433 551.501,474.433C551.501,474.433 554.795,463.283 562.262,467.158C568.969,470.64 560.14,477.237 560.14,477.237C560.14,477.237 573.154,476.323 570.825,481.026C566.96,488.832 557.336,483.982 557.336,483.982Z" style="fill:none;stroke:rgb(229,255,228);stroke-width:4.11px;"/>
    </g>
    <g id="Flower4" serif:id="Flower" transform="matrix(-1,0,0,1,652.995,140.484)">
        <path d="M560.898,515.204C560.898,515.204 579.085,511.111 576.433,496.789C576.433,496.789 560.291,499.745 560.898,515.204Z" style="fill:none;stroke:rgb(138,197,131);stroke-width:4.11px;"/>
        <path d="M557.866,484.512C557.866,484.512 562.716,493.531 560.898,515.204" style="fill:none;stroke:rgb(138,197,131);stroke-width:4.11px;"/>
        <path d="M560.898,515.203C560.898,515.203 543.62,515.507 544.074,501.108C544.074,501.108 560.064,499.896 560.898,515.203Z" style="fill:none;stroke:rgb(138,197,131);stroke-width:4.11px;"/>
        <path d="M557.336,483.982C557.336,483.982 555.142,492.769 547.257,491.181C538.175,489.352 545.666,482.845 545.666,482.845C545.666,482.845 536.242,482.804 537.254,477.313C538.272,471.787 551.501,474.433 551.501,474.433C551.501,474.433 554.795,463.283 562.262,467.158C568.969,470.64 560.14,477.237 560.14,477.237C560.14,477.237 573.154,476.323 570.825,481.026C566.96,488.832 557.336,483.982 557.336,483.982Z" style="fill:none;stroke:rgb(229,255,228);stroke-width:4.11px;"/>
    </g>
</svg>
