<?xml version="1.0" encoding="UTF-8" standalone="no"?>
<!DOCTYPE svg PUBLIC "-//W3C//DTD SVG 1.1//EN" "http://www.w3.org/Graphics/SVG/1.1/DTD/svg11.dtd">
<svg width="100%" height="100%" viewBox="0 0 90 70" version="1.1" xmlns="http://www.w3.org/2000/svg" xmlns:xlink="http://www.w3.org/1999/xlink" xml:space="preserve" xmlns:serif="http://www.serif.com/" style="fill-rule:evenodd;clip-rule:evenodd;stroke-linecap:round;stroke-linejoin:round;stroke-miterlimit:1.5;">
    <g id="Mole" transform="matrix(1,0,0,1,-950.014,-645.233)">
        <g transform="matrix(1,0,0,1,0,1)">
            <path d="M976.464,714.158C976.464,714.158 975.971,645.284 1008.04,645.284C1040.11,645.284 1039.71,713.862 1039.71,713.862L976.464,714.158Z" style="fill:rgb(100,91,88);"/>
        </g>
        <g transform="matrix(1,0,0,1,0,1)">
            <g transform="matrix(1,0,0,1,950.777,642.737)">
                <path d="M34.183,20.855C47.91,21.424 64.414,25.252 64.414,31.949C64.414,38.646 60.888,57.743 47.149,57.743C40.214,57.743 30.883,51.976 22.657,44.579C14.59,37.324 2.912,26.529 2.912,23.213C2.912,16.516 20.792,20.3 34.183,20.855Z" style="fill:white;"/>
            </g>
            <g transform="matrix(1,0,0,1,950.777,642.737)">
                <path d="M8.125,30.71C5.048,27.418 2.912,24.631 2.912,23.213C2.912,19.78 7.61,19.101 13.993,19.33C15.498,21.064 14.417,24.367 13.34,26.484C12.257,28.614 10.485,29.974 8.125,30.71Z" style="fill:rgb(233,166,161);"/>
            </g>
            <g transform="matrix(1,0,0,1,945.715,641.835)">
                <circle cx="65.559" cy="28.586" r="9.811" style="fill:white;stroke:black;stroke-width:1px;"/>
            </g>
            <g transform="matrix(0.0795053,0,0,0.0795053,1002.87,667.369)">
                <circle cx="65.559" cy="28.586" r="9.811" style="fill:white;stroke:black;stroke-width:25.16px;"/>
            </g>
            <g transform="matrix(1,0,0,1,950.014,645.233)">
                <path d="M21.911,40.571C30.17,46.119 47.626,41.84 51.448,35C51.448,35 58.35,48.439 46.166,52.496C37.645,55.334 21.911,40.571 21.911,40.571Z" style="fill:none;stroke:black;stroke-width:1px;"/>
                <path d="M21.911,40.571C30.17,46.119 47.626,41.84 51.448,35C51.448,35 58.35,48.439 46.166,52.496C37.645,55.334 21.911,40.571 21.911,40.571Z" style="fill:rgb(132,86,98);"/>
            </g>
            <g transform="matrix(1,0,0,1,950.014,645.233)">
                <path d="M39.731,52.156C40.514,49.808 43.73,42.295 53.222,40.714C53.846,44.886 53.07,50.197 46.166,52.496C44.289,53.122 42.063,52.893 39.731,52.156Z" style="fill:rgb(232,139,140);"/>
            </g>
        </g>
    </g>
</svg>
