<?xml version="1.0" encoding="UTF-8" standalone="no"?>
<!DOCTYPE svg PUBLIC "-//W3C//DTD SVG 1.1//EN" "http://www.w3.org/Graphics/SVG/1.1/DTD/svg11.dtd">
<svg width="100%" height="100%" viewBox="0 0 146 99" version="1.1" xmlns="http://www.w3.org/2000/svg" xmlns:xlink="http://www.w3.org/1999/xlink" xml:space="preserve" xmlns:serif="http://www.serif.com/" style="fill-rule:evenodd;clip-rule:evenodd;stroke-linejoin:round;stroke-miterlimit:2;">
    <g id="Pit_Bottom" transform="matrix(1,0,0,1,-761.747,-810.356)">
        <g transform="matrix(1,0,0,1,564.747,60.6801)">
            <path d="M342.969,749.672L342.969,848.68L197.031,848.68L197.031,749.672L224.743,776.338L267.511,783.93L316.825,775.282L342.969,749.672Z" style="fill:rgb(187,234,154);"/>
        </g>
        <g transform="matrix(1.02595,0,0,1.00562,-21.6009,-5.73531)">
            <path d="M905.815,811.528C905.073,830.722 870.223,850.436 833.887,849.957C789.171,849.369 763.846,833.036 763.581,811.886C763.58,811.767 763.58,811.648 763.581,811.528L773.22,811.528C773.415,828.39 796.906,842.274 836.895,840.54C865.497,839.3 893.95,826.807 896.771,811.528L905.815,811.528Z" style="fill:rgb(217,135,0);"/>
        </g>
    </g>
</svg>
