<?xml version="1.0" encoding="UTF-8" standalone="no"?>
<!DOCTYPE svg PUBLIC "-//W3C//DTD SVG 1.1//EN" "http://www.w3.org/Graphics/SVG/1.1/DTD/svg11.dtd">
<svg width="100%" height="100%" viewBox="0 0 380 380" version="1.1" xmlns="http://www.w3.org/2000/svg" xmlns:xlink="http://www.w3.org/1999/xlink" xml:space="preserve" xmlns:serif="http://www.serif.com/" style="fill-rule:evenodd;clip-rule:evenodd;stroke-linejoin:round;stroke-miterlimit:2;">
    <g id="result_incorrect" transform="matrix(1,0,0,1,-493.403,-2689.4)">
        <path d="M678.035,2797.5C678.035,2797.5 706.914,2768.26 722.104,2754.43C737.565,2740.36 770.802,2713.07 770.802,2713.07C770.802,2713.07 816.4,2674.92 849.994,2708.42C884.307,2742.64 863.927,2775.95 850.709,2789.28C837.49,2802.62 755.321,2875.02 755.321,2875.02L851.185,2974.1C851.185,2974.1 882.147,3016.08 849.875,3047.64C817.603,3079.19 778.9,3048.47 778.9,3048.47L678.392,2951.65C678.392,2951.65 645.343,2983.21 637.007,2992.74C628.671,3002.26 601.52,3032.99 596.161,3039.66C592.768,3043.88 571.066,3076.81 527.123,3058.83C483.181,3040.85 500.21,2984.76 512.476,2970.83C524.741,2956.89 603.219,2875.56 603.219,2875.56C603.219,2875.56 552.045,2821.6 538.913,2811.85C530.174,2805.36 518.97,2794.4 509.494,2782.53C500.604,2771.38 497.16,2755.31 498.066,2743.58C499.972,2718.93 522.836,2693.33 552.488,2695.35C582.141,2697.38 607.387,2725.24 607.387,2725.24L678.035,2797.5ZM619.185,2873.51L520.05,2985.18C520.05,2985.18 499.94,3021.04 525.786,3041.05C550.112,3059.88 573.168,3045.53 581.16,3035.88C589.571,3025.72 605.811,3006.25 609.762,3002.17C615.071,2996.69 678.094,2930.2 678.094,2930.2C678.094,2930.2 778.783,3032.12 787.085,3037.05C803.241,3046.65 822.281,3054.82 842.546,3034.7C861.95,3015.44 847.297,2988.57 837.964,2979.63C830.904,2972.87 734.805,2873.72 734.805,2873.72C734.805,2873.72 767.305,2843.49 800.153,2814.57C817.378,2799.4 834.76,2785.68 844.886,2773.43C848.028,2769.63 854.843,2757.53 854.553,2744.9C854.321,2734.81 848.741,2724.39 839.054,2717.6C817.249,2702.34 796.897,2708.52 785.631,2718.69C774.365,2728.87 741.692,2756.68 732.607,2764.31C723.521,2771.94 678.838,2818.5 678.838,2818.5C678.838,2818.5 653.49,2791.47 633.743,2771.08C622.24,2759.2 611.265,2749.5 608.282,2745.59C596.952,2730.74 579.936,2717.24 573.394,2713.97C566.852,2710.7 532.932,2699.61 515.247,2730.89C507.513,2744.57 510.706,2762.95 521.788,2775.4C537.939,2793.55 557.174,2807.13 567.579,2818.27C580.046,2831.62 619.185,2873.51 619.185,2873.51Z" style="fill:white;"/>
        <g transform="matrix(1,0,0,1,-1.85256,-0.523171)">
            <path d="M621.038,2874.03L521.902,2985.7C521.902,2985.7 501.792,3021.57 527.639,3041.57C551.965,3060.4 575.02,3046.05 583.012,3036.4C591.423,3026.24 607.664,3006.77 611.615,3002.69C616.924,2997.22 679.946,2930.73 679.946,2930.73C679.946,2930.73 780.636,3032.64 788.938,3037.57C805.094,3047.17 824.134,3055.34 844.399,3035.22C863.802,3015.96 849.149,2989.1 839.817,2980.15C832.756,2973.39 736.657,2874.24 736.657,2874.24C736.657,2874.24 769.158,2844.02 802.005,2815.09C819.231,2799.92 836.612,2786.2 846.739,2773.95C849.88,2770.15 856.696,2758.05 856.406,2745.42C856.173,2735.33 850.594,2724.91 840.907,2718.13C819.102,2702.86 798.75,2709.04 787.484,2719.22C776.218,2729.39 743.545,2757.2 734.46,2764.83C725.374,2772.46 680.691,2819.02 680.691,2819.02C680.691,2819.02 655.342,2791.99 635.595,2771.6C624.092,2759.72 613.118,2750.02 610.135,2746.11C598.804,2731.26 581.788,2717.76 575.247,2714.49C568.705,2711.22 534.785,2700.14 517.099,2731.41C509.365,2745.09 512.558,2763.47 523.64,2775.93C539.792,2794.08 559.027,2807.66 569.432,2818.8C581.898,2832.14 621.038,2874.03 621.038,2874.03Z" style="fill:rgb(223,86,68);fill-opacity:0.9;"/>
        </g>
    </g>
</svg>
