<?xml version="1.0" encoding="UTF-8" standalone="no"?>
<!DOCTYPE svg PUBLIC "-//W3C//DTD SVG 1.1//EN" "http://www.w3.org/Graphics/SVG/1.1/DTD/svg11.dtd">
<svg width="100%" height="100%" viewBox="0 0 474 358" version="1.1" xmlns="http://www.w3.org/2000/svg" xmlns:xlink="http://www.w3.org/1999/xlink" xml:space="preserve" xmlns:serif="http://www.serif.com/" style="fill-rule:evenodd;clip-rule:evenodd;stroke-linejoin:round;stroke-miterlimit:2;">
    <g id="result_correct" transform="matrix(1,0,0,1,-1607.13,-1943.35)">
        <g transform="matrix(0.999359,0,0,0.999359,1.10631,3.80257)">
            <path d="M1785.03,2157.51C1785.03,2157.51 1837.13,2094.3 1870.2,2063.71C1891.98,2043.56 1967.41,1976.72 1967.41,1976.72C1967.41,1976.72 1988.65,1953.12 2013.37,1947.12C2031.6,1942.69 2051.84,1949.55 2066.26,1965.69C2084.33,1985.94 2080.4,2013.64 2066.26,2031.78C2052.75,2049.1 2029.25,2056.65 2019.44,2065.54C1968.49,2111.71 1946.44,2136.59 1912.04,2173.2C1878.34,2209.08 1848.18,2242.14 1817.17,2280.57C1812.91,2285.85 1797.78,2294.79 1783.62,2293.95C1769.58,2293.12 1756.52,2282.57 1751.18,2276C1735.59,2256.85 1709.16,2228.17 1709.16,2228.17C1709.16,2228.17 1660.54,2178.43 1620.91,2148.86C1604.64,2136.72 1607.6,2090.2 1623.33,2075.86C1634.59,2065.61 1651.21,2058.06 1669.53,2061.63C1684.49,2064.56 1700.92,2074.66 1718.37,2091.19C1740.06,2111.74 1785.03,2157.51 1785.03,2157.51ZM1786.17,2179.67C1786.17,2179.67 1734.96,2121.24 1712.12,2101.99C1671.69,2067.92 1656.7,2067.46 1636.26,2086.09C1620.52,2100.43 1619.53,2132.1 1635.8,2144.24C1675.43,2173.8 1723.93,2221.92 1723.93,2221.92C1723.93,2221.92 1747.28,2251.82 1762.87,2270.97C1773.6,2284.16 1802.53,2278.61 1811.02,2268.09C1842.02,2229.66 1869.25,2196.01 1902.95,2160.14C1937.35,2123.52 1958.12,2098.73 2011.49,2054.74C2032.4,2037.51 2090.43,2013.46 2055.1,1973.88C2021.15,1935.86 1983.32,1982.97 1983.32,1982.97C1983.32,1982.97 1898.8,2057.76 1877.02,2077.91C1843.95,2108.51 1786.17,2179.67 1786.17,2179.67Z" style="fill:white;"/>
        </g>
        <g transform="matrix(0.999359,0,0,0.999359,1.10631,3.80257)">
            <path d="M1786.17,2179.67C1786.17,2179.67 1843.95,2108.51 1877.02,2077.91C1898.8,2057.76 1983.32,1982.97 1983.32,1982.97C1983.32,1982.97 2021.15,1935.86 2055.1,1973.88C2090.43,2013.46 2032.4,2037.51 2011.49,2054.74C1958.12,2098.73 1937.35,2123.52 1902.95,2160.14C1869.25,2196.01 1842.02,2229.66 1811.02,2268.09C1802.53,2278.61 1773.6,2284.16 1762.87,2270.97C1747.28,2251.82 1723.93,2221.92 1723.93,2221.92C1723.93,2221.92 1675.43,2173.8 1635.8,2144.24C1619.53,2132.1 1620.52,2100.43 1636.26,2086.09C1656.7,2067.46 1671.69,2067.92 1712.12,2101.99C1734.96,2121.24 1786.17,2179.67 1786.17,2179.67Z" style="fill:rgb(136,192,83);fill-opacity:0.9;"/>
        </g>
    </g>
</svg>
